PathFileType	4	(X/Y/Z)	c:\Git\powerlifing_model_clean\simulations\HC835B\Session1\HC835B_OGR_0001\marker_experimental.trc
DataRate	CameraRate	NumFrames	NumMarkers	Units	OrigDataRate	OrigDataStartFrame	OrigNumFrames
240.000000	240.000000	4	38	mm	240.000000	26	213
Frame#	Time	RPSI			LPSI			RASI			LASI			RTH1			RTH2			RTH3			RTH4			RSK1			RSK2			RSK3			RSK4			RCAL1			RCAL2			RCAL3			RST			RPT			RTN			RFMB			RSMB			RVMB			RFMH			RSMH			RVMH			RPM			LTH1			LTH2			LTH3			LTH4			LSK1			LSK2			LSK3			LSK4			LCAL1			LCAL2			LCAL3			LFMH			LVMH			
		X1	Y1	Z1	X2	Y2	Z2	X3	Y3	Z3	X4	Y4	Z4	X5	Y5	Z5	X6	Y6	Z6	X7	Y7	Z7	X8	Y8	Z8	X9	Y9	Z9	X10	Y10	Z10	X11	Y11	Z11	X12	Y12	Z12	X13	Y13	Z13	X14	Y14	Z14	X15	Y15	Z15	X16	Y16	Z16	X17	Y17	Z17	X18	Y18	Z18	X19	Y19	Z19	X20	Y20	Z20	X21	Y21	Z21	X22	Y22	Z22	X23	Y23	Z23	X24	Y24	Z24	X25	Y25	Z25	X26	Y26	Z26	X27	Y27	Z27	X28	Y28	Z28	X29	Y29	Z29	X30	Y30	Z30	X31	Y31	Z31	X32	Y32	Z32	X33	Y33	Z33	X34	Y34	Z34	X35	Y35	Z35	X36	Y36	Z36	X37	Y37	Z37	X38	Y38	Z38	

27	0.1083333333333333	521.3476562500001	1117.661499023438	7.531865119934084	413.2971191406251	1116.868896484375	-3.245433568954469	593.5606079101564	1067.977294921875	-190.8568572998047	360.7245483398438	1053.719848632813	-204.4314117431641	663.2155151367189	796.9941406250002	-176.6095886230469	656.3674316406251	802.805358886719	-236.7841491699219	647.7866821289064	726.6419677734376	-220.6908874511719	631.6099243164064	731.9447021484376	-276.7154235839844	567.0421142578126	293.5404357910157	-189.6322479248047	566.3665161132814	274.8853149414063	-248.4966125488282	556.8838500976564	236.8446960449219	-201.7553253173829	543.7803955078126	221.6084136962891	-258.3337097167969	479.5528564453126	95.45829010009767	-134.7704162597657	448.3053588867189	58.87215042114259	-143.4453582763672	512.1574096679689	59.40525436401369	-134.5305480957032	440.4288940429689	74.13268280029298	-213.8160247802735	540.4798583984376	69.88206481933595	-192.3746185302735	460.0954589843751	92.9347610473633	-267.5781555175782	465.8816223144532	76.16163635253908	-298.7100219726563	515.0784301757814	98.20233917236331	-305.0884094238282	554.4425659179689	44.02724075317384	-233.8606109619141	468.1571655273439	50.76877212524415	-354.6357421875001	523.5626831054689	62.57909393310548	-363.5308532714844	580.2992553710939	39.15388870239259	-310.2196350097657	516.2840576171876	50.49675369262697	-422.101287841797	285.0261535644532	766.4035034179689	-65.11083221435548	287.0847778320313	747.6054077148439	-122.9986953735352	287.1222839355469	681.1354370117189	-76.10742950439455	302.6492004394532	663.5213623046876	-132.2154388427735	339.8360290527344	572.1963500976564	243.6764068603516	326.7125854492188	522.7255859375001	259.0644531250001	340.6907653808594	552.3202514648439	296.2575378417969	342.5929260253907	498.6038208007814	309.0695495605469	416.7761535644532	596.4718017578126	417.5530090332032	396.2029418945314	608.8220214843751	458.8713989257814	452.2117004394532	593.5789184570314	449.4291992187501	431.5542907714845	381.0693359375001	496.7934570312501	333.8247985839844	440.1478576660157	528.5856323242189	
28	0.1125	519.5810546875001	1114.16259765625	-4.501375198364259	412.3345031738282	1110.682250976563	-13.9173641204834	593.8402099609376	1064.4111328125	-203.4806671142579	361.4197692871094	1048.844848632813	-216.2373352050782	662.7734375000001	795.3244628906252	-189.6617889404297	656.5825195312501	801.292419433594	-249.8827056884766	647.1875000000001	725.2000732421876	-233.9382476806641	631.1389770507814	730.7047119140626	-289.9953918457032	566.4428100585939	294.2497863769532	-196.2369689941407	565.8070068359376	274.3641967773438	-254.6802368164063	556.3355102539064	237.2901306152344	-207.1343383789063	543.2547607421876	220.8229217529297	-263.3368530273438	478.7025451660157	96.64957427978518	-136.5149230957032	447.7837219238282	59.61557006835939	-144.565902709961	511.6300659179689	60.8552932739258	-135.6497955322266	439.5340881347657	73.46929931640626	-215.1757354736329	539.6046142578126	70.64786529541017	-193.8402709960938	458.8119201660157	91.87456512451173	-269.2250061035157	464.7065429687501	75.19750213623048	-300.3056945800782	513.7692871093751	97.69755554199222	-306.8981323242188	553.5749511718751	44.81164932250977	-234.8193511962891	467.3401794433595	49.83125686645509	-355.9156188964844	522.7859497070314	61.52571868896486	-365.0151672363282	579.3837890625001	38.90370559692384	-310.8813476562501	515.8962402343751	47.75542449951173	-423.594451904297	283.8316345214844	762.4567871093751	-81.6228713989258	286.0201721191407	744.7552490234376	-139.8154449462891	285.6244506835938	677.5689697265626	-94.15000915527345	301.0538635253907	660.7119750976564	-150.3760986328125	338.7194824218751	571.7784423828126	220.6687469482422	325.5685424804688	522.5628051757814	236.768295288086	339.6976318359376	552.9819946289064	273.5676879882813	341.5001525878907	499.5196838378907	287.2902221679688	415.7116088867189	598.8272705078126	394.8956298828126	394.8514099121095	611.5595703125001	435.937957763672	450.919647216797	596.2614746093751	426.9990539550782	430.4844665527345	384.1218261718751	475.9146728515626	332.4503173828126	443.1746215820314	506.6540832519532	
29	0.1166666666666667	517.8537597656251	1111.49560546875	-16.5982723236084	411.3752441406251	1104.50634765625	-24.55602645874024	594.2308349609376	1061.008422851563	-216.1891021728516	362.2791442871094	1043.789672851563	-227.7196197509766	662.3366088867189	793.4475097656252	-202.5273437500001	656.7434082031251	799.4123535156252	-262.8324279785157	646.3782958984376	723.5031127929689	-246.9483489990235	630.1442871093751	729.3796386718751	-302.9087219238282	565.7113037109376	294.8962402343751	-202.0908813476563	565.4667968750001	273.4061584472657	-260.0040893554688	555.6986083984376	237.5387573242188	-211.657455444336	543.0000000000001	219.6734619140626	-267.5140075683594	478.3511047363282	97.35549926757815	-137.3152923583985	447.5610656738282	60.0923538208008	-144.9770050048828	511.4241027832032	61.74703598022462	-136.1858673095703	438.9378356933595	73.34075164794923	-215.7734680175782	538.9869384765626	71.15628051757814	-194.6344146728516	457.7742004394532	91.27317810058595	-270.0727539062501	463.7232055664064	74.5140838623047	-301.1131896972657	512.6154174804689	97.32881164550784	-307.8906250000001	553.0026855468751	45.37229156494141	-235.3527526855469	466.4440002441407	49.0009002685547	-356.6875610351563	521.7719726562501	60.88002777099611	-365.8371887207032	579.0870361328126	39.9964942932129	-311.3323059082032	515.4215698242189	45.94242095947266	-424.4891662597657	282.8468627929688	759.0338745117189	-98.45865631103518	285.0862121582032	742.3242187500001	-157.0929107666016	284.3557739257813	674.3327636718751	-112.2927627563477	299.7138061523438	658.3992309570314	-169.0201568603516	337.7316894531251	571.3753051757814	197.4250030517579	324.4329528808594	522.5012817382814	214.3986968994141	338.7577209472657	553.4030151367189	250.6078796386719	340.5025024414063	499.6959533691407	265.0298461914063	414.4361572265626	600.8063354492189	372.0998535156251	393.3004455566407	613.7573242187501	412.8591613769532	449.7366638183595	598.7655639648439	404.3699951171876	429.6790771484376	386.6668090820314	454.7305603027345	331.1354980468751	445.519500732422	484.3908081054689	
30	0.1208333333333333	516.3737792968751	1109.677124023438	-29.10780906677247	410.7738647460939	1099.582763671875	-36.03374862670899	595.0057983398439	1057.91650390625	-228.9454650878907	363.2284851074219	1038.707153320313	-239.0863342285157	662.1217041015626	791.3872070312502	-215.1278228759766	656.9207153320314	797.4680175781252	-275.5277404785157	645.6094970703126	721.5970458984376	-259.6897888183594	629.4123535156251	727.8243408203126	-315.5744934082032	564.9756469726564	295.6182861328126	-207.6887207031251	564.7876586914064	272.5634155273438	-265.0048828125001	555.0937500000001	238.1090087890626	-215.6639709472657	542.5889282226564	218.559066772461	-271.0779418945313	478.4649353027345	97.77825164794925	-137.5916900634766	447.6107482910157	60.53075408935548	-145.138168334961	511.4978332519532	62.13692474365236	-136.3310852050782	439.0636596679689	73.42398834228517	-215.9062042236329	538.8844604492189	71.31030273437501	-194.8604431152344	457.435760498047	90.89473724365236	-270.5164794921876	463.6051330566407	74.09217071533205	-301.4508972167969	512.5257568359376	97.03044128417972	-308.1738891601563	553.1647949218751	45.47209167480469	-235.4182739257813	466.6318664550782	48.6186866760254	-356.9743652343751	521.8383178710939	60.41055297851564	-366.0531921386719	578.7155761718751	40.15825271606446	-311.3143920898438	515.5519409179689	44.79967880249024	-424.8426208496095	281.9896545410157	756.1153564453126	-115.55810546875	284.2242431640626	740.2762451171876	-174.418441772461	283.1750183105469	671.5776977539064	-130.8842010498047	298.5058288574219	656.4158935546876	-187.6752624511719	336.6363830566407	570.6578369140626	174.0391387939453	323.2911682128907	522.0182495117189	191.6623992919922	337.6760253906251	553.3888549804689	227.5376586914063	339.3323059082032	500.1862182617189	242.6830291748047	413.0649719238282	602.3734130859376	349.2551879882813	391.5049743652345	615.4822998046876	389.695037841797	448.0247497558595	600.7431640625001	381.8462829589844	429.1665344238282	388.8489379882814	433.1776733398439	329.9066162109376	447.1508178710939	461.7071533203126	
